#!OML:ASF E:\acrobat2\Project_11_07_03\Capture day 1\Session 1\Acrobat.ASF
:FULLY-SPECIFIED
:DEGREES
66
root 8.55416 17.8607 -14.109 180.008 22.9211 -183.817
lowerback 2.32372 1.44471 -3.52738
upperback -2.37779 1.81168 -2.69755
thorax -3.77593 1.00756 -0.910918
lowerneck -4.55339 3.99178 -2.97104
upperneck 12.1477 5.04547 9.32647
head 4.03618 3.05249 3.59304
rclavicle 1.94064e-014 7.55382e-014
rhumerus -50.0984 -21.5873 -56.7219
rradius 30.6411
rwrist -23.104
rhand -26.7664 -43.116
rfingers 7.12502
rthumb -0.194434 286.904
lclavicle 1.94064e-014 7.55382e-014
lhumerus -26.3996 -5.54536 81.5626
lradius 31.6662
lwrist 11.7021
lhand -27.4318 -391.492
lfingers 7.12502
lthumb -0.837126 -1.51345
rfemur -0.831221 -6.2981 11.1195
rtibia 61.2244
rfoot -190.178 -169.687
rtoes -54.7174
lfemur -16.238 2.94956 -17.5675
ltibia 2.25037
lfoot 11.7285 2.96732
ltoes 66.6471
67
root 8.61543 18.1459 -14.6769 180.843 23.5132 -182.464
lowerback 2.17118 1.37129 -2.74637
upperback -1.94229 1.74126 -2.24446
thorax -3.22692 0.935472 -0.85906
lowerneck -4.75355 4.64304 -2.42332
upperneck 12.6259 5.94153 8.57441
head 4.20221 3.48603 3.32673
rclavicle 1.14177e-014 2.34566e-014
rhumerus -50.8656 -22.1014 -55.1745
rradius 28.9754
rwrist -16.1085
rhand -21.7754 -40.6539
rfingers 7.12502
rthumb 4.62563 289.417
lclavicle 1.14177e-014 2.34566e-014
lhumerus -28.9645 -4.5402 82.0945
lradius 31.691
lwrist 10.2314
lhand -26.421 -390.602
lfingers 7.12502
lthumb 0.139128 -0.622733
rfemur -0.982107 -6.73036 11.886
rtibia 62.6004
rfoot -188.875 -168.914
rtoes -51.6668
lfemur -15.2398 2.50925 -16.3628
ltibia 3.45049
lfoot 11.3324 2.98628
ltoes 66.8684
68
root 8.68447 18.4298 -15.2359 180.848 24.0995 -181.876
lowerback 2.26761 1.44037 -2.59332
upperback -1.56883 1.83544 -2.08305
thorax -2.89658 0.970339 -0.777292
lowerneck -2.80441 4.68193 -2.17605
upperneck 11.2871 6.1088 8.01775
head 3.8789 3.4782 3.35662
rclavicle -2.79696e-014 -1.19271e-015
rhumerus -51.7525 -21.3025 -54.6188
rradius 27.9068
rwrist -13.276
rhand -20.6638 -41.9092
rfingers 7.12502
rthumb 5.69899 288.187
lclavicle -2.79696e-014 -1.19271e-015
lhumerus -31.328 -3.77695 82.1071
lradius 31.3947
lwrist 8.86395
lhand -24.074 -389.894
lfingers 7.12502
lthumb 2.40592 0.0718458
rfemur -0.7095 -7.63613 11.8004
rtibia 64.7563
rfoot -187.438 -168.816
rtoes -47.6452
lfemur -14.1675 2.12242 -16.0066
ltibia 5.44368
lfoot 11.243 3.5931
ltoes 67.4765
69
root 8.76034 18.7134 -15.7944 180.579 24.9381 -181.627
lowerback 2.11799 1.66431 -2.67172
upperback -1.16681 2.14597 -2.07548
thorax -2.4034 1.11953 -0.725867
lowerneck -0.760963 4.57704 -1.94541
upperneck 10.4657 6.03096 7.86741
head 3.21212 3.41116 3.13145
rclavicle -7.94583e-014 -3.10104e-014
rhumerus -52.5363 -20.4295 -54.4309
rradius 27.1914
rwrist -13.1349
rhand -20.4253 -43.702
rfingers 7.12502
rthumb 5.92919 286.401
lclavicle -7.94583e-014 -3.10104e-014
lhumerus -33.6135 -2.59721 81.5412
lradius 31.0469
lwrist 7.37577
lhand -23.3512 -389.457
lfingers 7.12502
lthumb 3.10396 0.500203
rfemur -0.372878 -8.25271 11.3638
rtibia 67.0638
rfoot -186.271 -168.583
rtoes -42.6647
lfemur -12.8131 0.869311 -15.8543
ltibia 6.86731
lfoot 10.353 4.78054
ltoes 67.7008
70
root 8.838 18.9921 -16.3361 180.556 25.7824 -181.234
lowerback 1.88418 1.92343 -2.6593
upperback -0.923374 2.50603 -2.00461
thorax -2.0271 1.29375 -0.659969
lowerneck 0.580353 4.56616 -1.57015
upperneck 10.3923 6.08537 7.5099
head 2.95233 3.43655 2.88377
rclavicle -6.61704e-014 3.97569e-015
rhumerus -53.569 -20.0185 -53.7361
rradius 26.5861
rwrist -13.3648
rhand -19.4408 -44.1626
rfingers 7.12502
rthumb 6.87961 285.969
lclavicle -6.61704e-014 3.97569e-015
lhumerus -35.4385 -1.1734 80.5695
lradius 30.3562
lwrist 6.46389
lhand -22.7668 -389.221
lfingers 7.12502
lthumb 3.66827 0.727651
rfemur -0.497378 -8.81578 11.2974
rtibia 69.6751
rfoot -186.276 -168.83
rtoes -43.0937
lfemur -11.2832 -1.21892 -15.494
ltibia 7.0366
lfoot 9.15034 7.39648
ltoes 67.4552
71
root 8.90938 19.2583 -16.871 180.671 26.2395 -180.613
lowerback 1.49295 2.09602 -2.31207
upperback -0.563726 2.76438 -1.88783
thorax -1.42974 1.41085 -0.716546
lowerneck 1.4047 4.58424 -1.33908
upperneck 10.4948 6.16568 7.26325
head 2.84416 3.48288 2.73121
rclavicle 2.95319e-014 -1.66979e-014
rhumerus -54.4904 -19.9541 -52.836
rradius 26.0921
rwrist -13.6118
rhand -18.0098 -44.6504
rfingers 7.12502
rthumb 8.2609 285.531
lclavicle 2.95319e-014 -1.66979e-014
lhumerus -36.4067 0.295304 79.2783
lradius 29.4167
lwrist 6.62839
lhand -22.1098 -388.414
lfingers 7.12502
lthumb 4.30278 1.52275
rfemur -0.570027 -9.95712 11.3522
rtibia 72.1585
rfoot -186.435 -169.211
rtoes -24.3471
lfemur -12.4299 -1.16986 -15.0542
ltibia 11.6753
lfoot 9.61057 7.98713
ltoes 68.1157
72
root 8.97415 19.4967 -17.4375 180.502 26.7184 -179.832
lowerback 0.900326 2.21717 -1.55214
upperback 0.186749 2.96953 -1.74282
thorax -0.298888 1.49974 -0.949188
lowerneck 1.51711 4.60193 -1.38297
upperneck 10.6246 6.20301 7.19499
head 2.86656 3.50246 2.7171
rclavicle 2.29596e-014 1.03368e-014
rhumerus -54.8204 -20.2046 -51.9508
rradius 25.585
rwrist -13.6212
rhand -16.4688 -45.1783
rfingers 7.12502
rthumb 9.74783 285.067
lclavicle 2.29596e-014 1.03368e-014
lhumerus -36.8762 2.0162 77.6822
lradius 28.6646
lwrist 7.90647
lhand -21.7556 -388.054
lfingers 7.12502
lthumb 4.64475 1.87516
rfemur 0.151016 -11.1667 11.0368
rtibia 74.1799
rfoot -181.307 -168.789
rtoes -8.9188
lfemur -11.9941 -1.74521 -14.6342
ltibia 14.1315
lfoot 10.1767 9.61982
ltoes 68.4355
73
root 9.0458 19.6954 -18.036 179.895 27.9009 -178.926
lowerback 0.522249 2.51108 -0.532807
upperback 0.959883 3.38891 -1.55902
thorax 0.754159 1.71062 -1.29098
lowerneck 1.83138 4.60128 -1.55074
upperneck 10.6642 6.21829 7.15249
head 2.81807 3.50291 2.72133
rclavicle -5.54112e-015 1.35174e-014
rhumerus -55.261 -20.1262 -50.9734
rradius 25.1407
rwrist -13.4552
rhand -14.8533 -45.5972
rfingers 7.12502
rthumb 11.3063 284.728
lclavicle -5.54112e-015 1.35174e-014
lhumerus -37.8513 3.67911 75.8165
lradius 28.4979
lwrist 10.1612
lhand -21.9435 -388.327
lfingers 7.12502
lthumb 4.46334 1.6055
rfemur 1.38149 -11.2691 10.8074
rtibia 76.0439
rfoot -176.733 -170.78
rtoes 23.4617
lfemur -11.9746 -0.73056 -13.9856
ltibia 18.5913
lfoot 11.3111 9.50129
ltoes 69.2268
74
root 9.1295 19.8234 -18.5252 179.931 27.5796 -178.329
lowerback 0.854139 2.36938 -0.478037
upperback 0.96756 3.19047 -1.35599
thorax 0.563683 1.60925 -1.12987
lowerneck 2.50132 4.55843 -1.41422
upperneck 10.7523 6.21524 6.78165
head 2.74032 3.49881 2.55033
rclavicle -2.11209e-014 1.82882e-014
rhumerus -56.2228 -19.6089 -49.9318
rradius 24.8243
rwrist -13.3137
rhand -13.2444 -46.1501
rfingers 7.12502
rthumb 12.8576 284.266
lclavicle -2.11209e-014 1.82882e-014
lhumerus -39.3613 4.98046 73.6401
lradius 28.9055
lwrist 12.7212
lhand -21.2755 -386.467
lfingers 7.12502
lthumb 5.10835 3.45183
rfemur 1.47146 -12.793 11.0729
rtibia 78.2807
rfoot -174.203 -172.438
rtoes 46.1578
lfemur -13.4006 -0.0359401 -13.4196
ltibia 22.6942
lfoot 13.2398 11.4238
ltoes 69.5122
75
root 9.20301 19.9281 -19.1171 179.426 29.4881 -178.16
lowerback 0.713862 2.99735 -0.111929
upperback 1.04908 4.03297 -1.38042
thorax 0.766744 2.03405 -1.34841
lowerneck 3.30484 4.62584 -1.57793
upperneck 10.7965 6.34463 6.83815
head 2.59805 3.56615 2.56846
rclavicle 1.20265e-014 -7.15625e-015
rhumerus -57.4416 -18.711 -49.0375
rradius 24.7251
rwrist -13.101
rhand -11.6818 -46.5851
rfingers 7.12502
rthumb 14.3637 283.932
lclavicle 1.20265e-014 -7.15625e-015
lhumerus -41.1147 6.15278 71.1271
lradius 29.5546
lwrist 14.9479
lhand -19.7898 -382.064
lfingers 7.12502
lthumb 6.54273 7.81464
rfemur 1.78599 -12.0908 10.4579
rtibia 80.4287
rfoot -182.839 -169.878
rtoes -20.1991
lfemur -12.122 0.660592 -13.48
ltibia 23.3655
lfoot 7.41458 14.5329
ltoes 70.2748
76
root 9.27311 19.9734 -19.6495 179.242 30.9066 -178.367
lowerback -0.612189 3.42758 -0.345484
upperback 1.76479 4.64823 -1.4268
thorax 2.24397 2.34646 -1.14721
lowerneck 3.41415 4.50606 -1.59868
upperneck 10.1044 6.16084 6.71934
head 2.35743 3.43595 2.50184
rclavicle 4.36829e-014 1.19271e-014
rhumerus -57.5047 -18.8251 -48.3356
rradius 24.5312
rwrist -12.3933
rhand -10.3243 -46.3125
rfingers 7.12502
rthumb 15.6713 284.302
lclavicle 4.36829e-014 1.19271e-014
lhumerus -41.4889 8.03806 68.4503
lradius 29.9311
lwrist 16.4614
lhand -18.2857 -379.156
lfingers 7.12502
lthumb 7.99456 10.6724
rfemur 1.46178 -11.5015 9.81468
rtibia 82.3598
rfoot -185.423 -170.993
rtoes -30.6874
lfemur -12.2202 2.59958 -13.8705
ltibia 24.913
lfoot 10.5405 9.6718
ltoes 69.1483
77
root 9.35184 19.9827 -20.1836 178.949 31.6029 -178.713
lowerback -0.995365 3.69741 -0.546787
upperback 1.93633 5.03952 -1.71043
thorax 2.65238 2.54547 -1.27962
lowerneck 3.57164 4.52561 -1.13913
upperneck 9.99713 6.21827 6.412
head 2.31297 3.46893 2.31079
rclavicle -2.25621e-014 -1.35174e-014
rhumerus -58.4543 -18.9945 -47.3391
rradius 24.1847
rwrist -11.2999
rhand -9.54314 -45.753
rfingers 7.12502
rthumb 16.4236 284.922
lclavicle -2.25621e-014 -1.35174e-014
lhumerus -42.4059 9.08559 65.427
lradius 30.1628
lwrist 17.4399
lhand -16.7438 -378.845
lfingers 7.12502
lthumb 9.48251 10.9216
rfemur 1.62117 -11.348 9.07189
rtibia 83.4656
rfoot -185.755 -171.64
rtoes -23.8539
lfemur -11.1476 3.45496 -14.3924
ltibia 22.2608
lfoot 11.7408 4.65448
ltoes 68.758
78
root 9.44433 19.9576 -20.6239 179.157 27.2409 -178.625
lowerback 0.0433757 2.17682 -1.46079
upperback 1.76522 2.9984 -1.62956
thorax 1.7981 1.51311 -0.805935
lowerneck 2.55168 4.46808 -1.10667
upperneck 10.3063 6.09067 6.63628
head 2.5987 3.42395 2.42854
rclavicle -4.75592e-014 -9.54166e-015
rhumerus -58.9717 -18.7829 -46.6274
rradius 23.7218
rwrist -10.329
rhand -9.47592 -45.7013
rfingers 7.12502
rthumb 16.4883 284.979
lclavicle -4.75592e-014 -9.54166e-015
lhumerus -43.4399 9.92087 62.5735
lradius 30.2478
lwrist 18.1026
lhand -15.6116 -378.593
lfingers 7.12502
lthumb 10.5748 11.121
rfemur 3.21045 -15.8923 8.79651
rtibia 83.412
rfoot -186.134 -172.182
rtoes -15.2282
lfemur -11.3669 0.98654 -14.6963
ltibia 15.7208
lfoot 10.7946 3.8073
ltoes 68.4913
79
root 9.51771 19.8883 -21.1445 179.399 27.3826 -178.558
lowerback -0.23299 2.10439 -1.4829
upperback 1.70029 2.90813 -1.70832
thorax 1.88921 1.46744 -0.86562
lowerneck 2.35464 4.42906 -0.883656
upperneck 10.1331 6.02983 6.45425
head 2.58965 3.3858 2.33015
rclavicle -2.29099e-014 -1.27222e-014
rhumerus -59.3502 -17.9645 -46.5228
rradius 23.5239
rwrist -10.0592
rhand -9.2679 -44.6793
rfingers 7.12502
rthumb 16.6885 286.018
lclavicle -2.29099e-014 -1.27222e-014
lhumerus -44.623 10.3388 59.8044
lradius 30.2839
lwrist 18.4393
lhand -15.1151 -378.142
lfingers 7.12502
lthumb 11.0537 11.547
rfemur 3.31284 -15.7404 8.69617
rtibia 83.7899
rfoot -186.476 -172.287
rtoes -1.27396
lfemur -9.24406 -3.98521 -14.0836
ltibia 8.38888
lfoot 1.8211 -1.83142
ltoes 59.0503
80
root 9.58889 19.7723 -21.648 179.44 27.7635 -178.77
lowerback -0.181351 2.0951 -1.81858
upperback 1.61986 2.90214 -1.8328
thorax 1.76792 1.46288 -0.810202
lowerneck 1.83761 4.42395 -0.577069
upperneck 10.0841 6.00722 6.14529
head 2.68458 3.36855 2.19263
rclavicle -1.60519e-014 -3.18055e-015
rhumerus -59.616 -17.3346 -46.3678
rradius 23.3621
rwrist -9.72019
rhand -8.96347 -43.6376
rfingers 7.12502
rthumb 16.9816 287.085
lclavicle -1.60519e-014 -3.18055e-015
lhumerus -45.799 10.5449 57.0135
lradius 30.4079
lwrist 18.4216
lhand -14.8661 -378.103
lfingers 7.12502
lthumb 11.2939 11.5729
rfemur 3.26668 -15.2541 8.39929
rtibia 84.1415
rfoot -187.761 -173.682
rtoes -3.35768
lfemur -7.51946 -5.06219 -14.6718
ltibia 2.88885
lfoot -2.89086 1.96603
ltoes 58.2451
